#define close_width 16
#define close_height 16
static char close_bits[] = {
  0x00, 0x00, 0x00, 0x00, 0x00, 0x00, 0x00, 0x00, 0x30, 0x0C, 0x70, 0x0E, 
  0xE0, 0x07, 0xC0, 0x03, 0xC0, 0x03, 0xE0, 0x07, 0x70, 0x0E, 0x30, 0x0C, 
  0x00, 0x00, 0x00, 0x00, 0x00, 0x00, 0x00, 0x00, };
