#define desk_toggled_width 16
#define desk_toggled_height 16
static char desk_toggled_bits[] = {
  0x00, 0x00, 0x00, 0x00, 0x1C, 0x38, 0x1C, 0x38, 0x1C, 0x38, 0x18, 0x18, 
  0x00, 0x00, 0x00, 0x00, 0x00, 0x00, 0x00, 0x00, 0x18, 0x18, 0x1C, 0x38, 
  0x1C, 0x38, 0x1C, 0x38, 0x00, 0x00, 0x00, 0x00, };
