#define desk_width 16
#define desk_height 16
static char desk_bits[] = {
  0x00, 0x00, 0x00, 0x00, 0x20, 0x00, 0x70, 0x00, 0xF8, 0x00, 0xFC, 0x0F, 
  0xF8, 0x0F, 0xF0, 0x07, 0xE0, 0x03, 0xE0, 0x03, 0xE0, 0x0C, 0x60, 0x18, 
  0x00, 0x30, 0x00, 0x20, 0x00, 0x00, 0x00, 0x00, };
