#define max_toggled_width 16
#define max_toggled_height 16
static char max_toggled_bits[] = {
  0x00, 0x00, 0x00, 0x00, 0x00, 0x00, 0x00, 0x00, 0x80, 0x0F, 0xF0, 0x08, 
  0x90, 0x08, 0x90, 0x08, 0x90, 0x0F, 0x10, 0x04, 0x10, 0x04, 0xF0, 0x07, 
  0x00, 0x00, 0x00, 0x00, 0x00, 0x00, 0x00, 0x00, };
