#define shade_width 16
#define shade_height 16
static char shade_bits[] = {
  0x00, 0x00, 0x00, 0x00, 0x00, 0x00, 0x00, 0x00, 0x80, 0x01, 0xC0, 0x03, 
  0xE0, 0x07, 0xF0, 0x0F, 0xB8, 0x1D, 0x90, 0x09, 0x80, 0x01, 0x80, 0x01, 
  0x80, 0x01, 0x00, 0x00, 0x00, 0x00, 0x00, 0x00, };
