#define shade_toggled_width 16
#define shade_toggled_height 16
static char shade_toggled_bits[] = {
  0x00, 0x00, 0x00, 0x00, 0x00, 0x00, 0x80, 0x01, 0x80, 0x01, 0x80, 0x01, 
  0x90, 0x09, 0xB8, 0x1D, 0xF0, 0x0F, 0xE0, 0x07, 0xC0, 0x03, 0x80, 0x01, 
  0x00, 0x00, 0x00, 0x00, 0x00, 0x00, 0x00, 0x00, };
